<?xml version="1.0" standalone="no"?>
<!DOCTYPE svg PUBLIC "-//W3C//DTD SVG 20010904//EN"
 "http://www.w3.org/TR/2001/REC-SVG-20010904/DTD/svg10.dtd">
<svg version="1.0" xmlns="http://www.w3.org/2000/svg"
 width="1392.000000pt" height="1392.000000pt" viewBox="0 0 1392.000000 1392.000000"
 preserveAspectRatio="xMidYMid meet">
<metadata>
Created by potrace 1.14, written by Peter Selinger 2001-2017
</metadata>
<g transform="translate(0.000000,1392.000000) scale(0.100000,-0.100000)"
fill="#000000" stroke="none">
<path d="M860 11271 c-14 -4 -37 -7 -52 -6 -16 1 -28 -3 -28 -8 0 -6 -2 -8 -6
-5 -7 7 -124 -24 -189 -50 -60 -24 -148 -72 -175 -95 -11 -9 -20 -15 -20 -12
0 14 -128 -118 -165 -170 -45 -63 -88 -149 -101 -200 -4 -17 -9 -34 -12 -40
-10 -16 -12 -44 -16 -165 -14 -411 185 -646 659 -779 77 -21 119 -30 230 -51
93 -17 110 -21 165 -36 30 -9 69 -19 85 -23 28 -7 105 -43 166 -76 70 -39 127
-138 133 -234 5 -92 -24 -170 -87 -234 -48 -49 -128 -97 -160 -97 -8 0 -17 -3
-21 -7 -10 -10 -39 -13 -158 -17 -217 -7 -368 42 -467 150 -90 98 -129 209
-134 383 l-3 84 -249 1 -250 1 -1 -105 c-2 -118 7 -204 32 -300 17 -67 83
-223 96 -228 5 -2 8 -8 8 -13 0 -15 76 -115 124 -164 95 -95 233 -178 386
-228 87 -29 147 -41 260 -54 86 -9 385 -4 385 7 0 1 16 3 35 6 19 2 46 7 60
10 14 4 34 9 45 11 29 5 156 55 183 71 12 8 22 11 22 8 0 -4 6 -2 13 4 6 6 40
29 74 51 63 42 164 142 196 195 45 74 79 149 99 221 19 66 22 103 23 238 0
177 -11 251 -49 343 -65 153 -167 252 -356 344 -108 52 -281 110 -370 122 -18
3 -125 25 -160 34 -14 3 -32 7 -40 8 -38 5 -195 50 -198 56 -2 5 -12 8 -21 8
-10 0 -21 3 -25 8 -4 4 -11 8 -14 8 -20 4 -72 30 -72 36 0 4 -5 8 -10 8 -18 0
-78 61 -95 96 -22 47 -27 70 -25 132 1 66 24 125 65 168 36 37 119 87 129 77
3 -4 6 -2 6 4 0 11 23 17 115 29 83 12 155 8 260 -11 58 -11 152 -65 198 -114
92 -97 110 -149 116 -342 1 -15 27 -17 250 -17 181 0 251 3 253 11 6 18 2 186
-6 241 -16 114 -76 269 -133 345 -72 97 -212 211 -318 261 -58 26 -205 81
-205 75 0 -2 -15 1 -32 6 -18 6 -46 12 -63 15 -56 8 -360 12 -385 5z"/>
<path d="M4090 11196 c-4 -379 -1 -2649 3 -2652 5 -5 285 -7 462 -5 l40 1 0
501 c0 275 3 503 7 506 5 2 158 6 341 7 182 2 342 5 353 9 12 3 37 8 55 11 79
12 289 106 289 128 0 4 5 8 10 8 20 0 121 105 170 176 28 40 50 74 50 77 0 2
10 26 22 53 12 27 23 54 25 59 1 6 7 28 13 50 19 73 21 80 26 130 5 44 7 160
5 220 -1 11 -1 27 -1 35 1 15 -6 66 -16 110 -3 14 -6 27 -6 30 -6 46 -74 190
-125 263 -63 89 -196 200 -275 228 -21 7 -38 17 -38 23 0 5 -3 6 -7 3 -3 -4
-11 -3 -17 3 -11 8 -70 25 -126 36 -14 2 -36 7 -50 10 -14 3 -292 7 -617 8
l-593 3 0 -31z m1064 -460 c66 -9 84 -14 129 -36 108 -55 166 -148 171 -278 3
-73 -10 -170 -26 -189 -6 -7 -7 -13 -4 -13 10 0 -44 -70 -74 -97 -36 -32 -120
-71 -171 -79 -24 -4 -165 -7 -314 -8 l-270 -1 0 350 0 350 45 5 c58 6 459 4
514 -4z"/>
<path d="M8083 11221 c-5 -3 -8 -608 -8 -1344 0 -1181 2 -1337 15 -1338 112
-4 1703 0 1708 6 4 3 7 112 7 241 l0 234 -45 1 c-25 0 -299 1 -610 1 l-566 1
1 1094 c0 602 -2 1098 -5 1102 -6 8 -486 10 -497 2z"/>
<path d="M11989 11186 c0 -43 0 -345 1 -407 l0 -37 320 2 c207 0 320 -3 321
-9 4 -41 3 -1699 -1 -1705 -3 -4 -148 -7 -323 -6 l-317 1 -1 -60 c-2 -192 0
-418 5 -422 4 -4 1660 -7 1771 -4 20 1 21 7 21 241 l0 240 -36 1 c-19 0 -164
1 -322 1 l-286 1 0 54 c1 29 -1 56 -5 59 -3 3 -2 17 3 30 6 14 6 26 0 29 -6 4
-6 14 1 27 7 14 8 23 1 30 -7 7 -7 19 -2 34 6 14 6 26 0 29 -6 4 -6 14 1 26 7
14 7 24 0 33 -6 7 -8 15 -5 18 7 7 6 719 0 726 -3 2 -1 13 5 24 7 13 7 23 0
32 -6 7 -8 16 -5 19 8 7 7 187 0 194 -3 3 -1 14 4 24 7 12 7 20 0 24 -7 4 -6
13 1 26 7 14 7 24 0 33 -6 7 -8 16 -5 19 4 3 6 56 5 117 0 80 3 110 12 111 6
0 150 1 319 1 276 0 308 2 311 17 4 14 2 428 -2 456 -1 7 -286 11 -896 11
l-895 0 -1 -40z"/>
<path d="M70 5368 c-1 -54 -1 -154 -1 -223 0 -69 0 -133 1 -144 0 -18 13 -19
354 -17 347 1 355 1 358 -19 2 -11 3 -507 2 -1102 0 -596 2 -1083 5 -1084 8
-1 440 -1 474 0 l27 1 0 1100 0 1100 33 1 c17 0 178 1 357 1 l325 1 0 241 0
241 -968 0 -967 1 0 -98z"/>
<path d="M4023 5457 c-7 -12 -6 -375 2 -387 3 -6 2 -10 -2 -10 -5 0 -7 -18 -5
-39 l4 -39 336 0 c186 -1 346 -1 357 -1 20 -1 20 -8 19 -1101 l-1 -1100 21 -1
c12 0 126 -1 253 -2 l233 -2 1 50 c0 28 0 524 0 1103 0 810 3 1052 12 1053 7
0 167 1 357 2 l345 2 1 230 c0 127 -1 235 -3 241 -5 13 -1922 14 -1930 1z"/>
<path d="M8079 5456 c-1 -6 -2 -611 -3 -1344 -1 -1178 1 -1332 14 -1333 21 -1
1668 -1 1703 0 l27 1 0 240 c0 185 -3 240 -12 241 -7 0 -285 1 -618 2 l-605 2
-1 303 c0 205 3 305 10 310 6 3 263 7 571 7 l560 0 1 242 2 241 -542 1 c-297
0 -555 0 -571 1 l-30 0 -1 305 c0 204 4 305 11 306 5 0 272 0 592 1 421 0 583
4 585 12 2 6 4 115 3 241 l0 230 -848 1 c-585 0 -847 -3 -848 -10z"/>
<path d="M11996 5461 c-2 -3 -3 -609 -2 -1345 l1 -1339 225 1 c302 1 292 0
285 13 -10 15 -12 80 -3 86 5 2 6 9 2 14 -5 8 -6 101 -4 239 1 8 0 40 -1 70
-1 30 0 60 1 65 1 6 2 15 1 20 -4 27 -1 498 3 503 3 2 147 4 321 4 l317 0 51
-26 c44 -21 55 -33 74 -75 22 -50 22 -60 23 -478 0 -235 2 -429 5 -431 7 -7
481 -6 492 1 6 4 10 63 9 152 -1 91 3 145 9 145 7 0 7 3 0 8 -6 4 -10 95 -10
237 0 142 4 233 10 237 7 5 7 8 0 8 -6 0 -10 38 -11 93 -1 125 -8 160 -40 215
-46 78 -123 133 -209 149 -36 6 -43 12 -40 30 2 10 4 26 4 35 1 9 11 20 23 24
69 22 238 164 238 201 0 7 4 13 9 13 12 0 67 137 76 190 12 67 13 253 2 318
-5 31 -9 63 -10 70 0 6 -4 12 -9 12 -5 0 -6 4 -3 10 3 5 0 24 -8 42 -8 18 -22
51 -32 73 -10 22 -32 63 -51 91 -38 58 -152 174 -171 174 -7 0 -13 4 -13 8 0
5 -37 27 -83 50 -75 37 -181 70 -282 88 -47 8 -1195 13 -1199 5z m974 -484 c0
-4 8 -3 19 2 10 6 20 8 23 6 3 -3 22 -7 44 -9 89 -11 147 -37 207 -94 59 -57
88 -128 92 -222 1 -43 6 -83 9 -89 4 -6 3 -11 -1 -11 -5 0 -10 -14 -11 -32 -6
-74 -75 -168 -152 -208 -44 -22 -136 -44 -150 -35 -5 3 -10 3 -10 -2 0 -9
-525 -11 -534 -2 -4 4 -7 243 -5 409 0 8 -1 34 -3 58 -2 24 0 46 4 48 5 3 6
10 3 15 -6 8 -8 65 -6 136 1 21 7 33 18 35 36 7 453 3 453 -5z"/>
</g>
</svg>
